{"title":"Draft.Day.2014.AVI.BRRip.360p.DivX.NLsub.{Th3Sp3cialist}","uid":10983247,"size":1245982612,"categoryP":"video","categoryS":"hd___movies","magnet":"?xt=urn:btih:7538ae68dc9d7d3ce8bd0c63eb4e1182565a69f4&amp;dn=Draft.Day.2014.AVI.BRRip.360p.DivX.NLsub.%7BTh3Sp3cialist%7D&amp;tr=udp%3A%2F%2Ftracker.openbittorrent.com%3A80&amp;tr=udp%3A%2F%2Fopen.demonii.com%3A1337&amp;tr=udp%3A%2F%2Ftracker.coppersurfer.tk%3A6969&amp;tr=udp%3A%2F%2Fexodus.desync.com%3A6969","seeders":4,"leechers":0,"uploader":"HOLLANDmovies","files":-1,"time":1409885743,"description":"INFO\n\nDraft Day (I) (2014)\n110 min - Drama | Sport\n\nAt the NFL Draft, general manager Sonny Weaver has the opportunity to rebuild his team when he trades for the number one pick. He must decide what he's willing to sacrifice on a life-changing day for a few hundred young men with NFL dreams.\n\nDirector: Ivan Reitman\nWriters: Scott Rothman, Rajiv Joseph\nStars: Kevin Costner, Chadwick Boseman, Jennifer Garner \n\nGENERAL:\n\nComplete name : Draft.Day.2014.AVI.BRRip.360p.DivX.NLsub.{Th3Sp3cialist}.Movie.avi\nFormat : AVI\nFormat/Info : Audio Video Interleave\nFormat profile : OpenDML\nFile size : 1.16 GiB\nDuration : 1h 51mn\nOverall bit rate : 1 496 Kbps\n\nVideo\nID : 0\nOriginal source : Draft.Day.2014.AVI.BRRip.720p.DivX.NLsub.{Th3Sp3cialist}.Movie.avi\nFormat : xvid\nCodec ID : xvid\nDuration : 1h 51mn\nBit rate : 1 160 Kbps\nWidth : 640 pixels\nHeight : 360 pixels\nDisplay aspect ratio : 16:9\nFrame rate : 24.000 fps\nBits/(Pixel*Frame) : 0.210\nStream size : 921 MiB (78%)\n\nAudio\nID : 1\nFormat : MPEG Audio\nFormat version : Version 1\nFormat profile : Layer 3\nMode : Joint stereo\nMode extension : MS Stereo\nCodec ID : 55\nCodec ID/Hint : MP3\nDuration : 1h 50mn\nBit rate mode : Constant\nBit rate : 320 Kbps\nChannel(s) : 2 channels\nSampling rate : 48.0 KHz\nCompression mode : Lossy\nStream size : 254 MiB (21%)\nAlignment : Aligned on interleaves\nInterleave, duration : 24 ms (0.58 video frame)\n &lt;a href=&quot;\nhttp://bayimg.com/EaamMAaGD&quot; rel=&quot;nofollow&quot; target=&quot;_NEW&quot;&gt;\nhttp://bayimg.com/EaamMAaGD&lt;/a&gt; &lt;a href=&quot;\nhttp://bayimg.com/EaAmnaagd&quot; rel=&quot;nofollow&quot; target=&quot;_NEW&quot;&gt;\nhttp://bayimg.com/EaAmnaagd&lt;/a&gt; &lt;a href=&quot;\nhttp://bayimg.com/eaAmpaAGD&quot; rel=&quot;nofollow&quot; target=&quot;_NEW&quot;&gt;\nhttp://bayimg.com/eaAmpaAGD&lt;/a&gt; &lt;a href=&quot;\nhttp://bayimg.com/fAaMDAagD&quot; rel=&quot;nofollow&quot; target=&quot;_NEW&quot;&gt;\nhttp://bayimg.com/fAaMDAagD&lt;/a&gt;","torrent":{"xt":"urn:btih:7538ae68dc9d7d3ce8bd0c63eb4e1182565a69f4","amp;dn":"Draft.Day.2014.AVI.BRRip.360p.DivX.NLsub.%7BTh3Sp3cialist%7D","amp;tr":["udp%3A%2F%2Ftracker.openbittorrent.com%3A80","udp%3A%2F%2Fopen.demonii.com%3A1337","udp%3A%2F%2Ftracker.coppersurfer.tk%3A6969","udp%3A%2F%2Fexodus.desync.com%3A6969"],"infoHash":"7538ae68dc9d7d3ce8bd0c63eb4e1182565a69f4","infoHashBuffer":{"type":"Buffer","data":[117,56,174,104,220,157,125,60,232,189,12,99,235,78,17,130,86,90,105,244]},"announce":[],"urlList":[]}}